<svg xmlns="http://www.w3.org/2000/svg" width="186.911" height="73.778" viewBox="0 0 186.911 73.778">
  <g id="Logo_SUINFRA_" data-name="Logo SUINFRA " transform="translate(-0.28 -0.28)">
    <path id="Caminho_278" data-name="Caminho 278" d="M0,0Z" transform="translate(0.28 0.28)" fill="none" stroke="#d0d2d3" stroke-width="0.57"/>
    <path id="Caminho_4" data-name="Caminho 4" d="M203.2,141.659l-4.015-10.693-3.9,10.693Zm10.691,11.459h-6.3l-2.494-6.578H193.509l-2.4,6.578h-6.187l11.217-28.889h6.179Zm-49.312-16.662h4.316a22.315,22.315,0,0,0,5.238-.357,3.121,3.121,0,0,0,1.633-1.225,3.755,3.755,0,0,0,.592-2.171,3.485,3.485,0,0,0-.78-2.36,3.545,3.545,0,0,0-2.193-1.13q-.715-.1-4.257-.1h-4.553v7.343Zm-5.852,16.662V124.228h12.285a21.039,21.039,0,0,1,6.732.78,6.612,6.612,0,0,1,3.362,2.763,8.335,8.335,0,0,1,1.264,4.553,7.728,7.728,0,0,1-1.9,5.372,9.15,9.15,0,0,1-5.7,2.67,13.316,13.316,0,0,1,3.106,2.421,32.922,32.922,0,0,1,3.309,4.693l3.524,5.636h-6.974l-4.182-6.309a40.085,40.085,0,0,0-3.086-4.238,4.48,4.48,0,0,0-1.756-1.2,9.812,9.812,0,0,0-2.952-.323h-1.184v12.065Zm-24.646,0V124.228h19.851v4.881h-14v6.859h12.1v4.881h-12.1v12.266H134.08Zm-29.139,0V124.228h5.663l11.889,19.36v-19.36H127.9v28.889h-5.844l-11.708-18.99v18.99Zm-11.412,0V124.228h5.849v28.889ZM64.594,124.228h5.852v15.655a32.9,32.9,0,0,0,.215,4.83,4.7,4.7,0,0,0,1.761,2.851,6.111,6.111,0,0,0,3.82,1.076,5.816,5.816,0,0,0,3.7-1.015,4.008,4.008,0,0,0,1.5-2.494,32.921,32.921,0,0,0,.254-4.91v-15.99h5.852v15.19a38.829,38.829,0,0,1-.472,7.356,8.176,8.176,0,0,1-1.741,3.631,8.753,8.753,0,0,1-3.382,2.355,14.717,14.717,0,0,1-5.541.88,15.856,15.856,0,0,1-6.253-.954,8.987,8.987,0,0,1-3.37-2.487,7.968,7.968,0,0,1-1.629-3.208,34.9,34.9,0,0,1-.572-7.336V124.233ZM36.15,143.757l5.69-.565a6.924,6.924,0,0,0,2.071,4.189,6.251,6.251,0,0,0,4.216,1.338,6.461,6.461,0,0,0,4.23-1.191,3.549,3.549,0,0,0,1.426-2.785,2.653,2.653,0,0,0-.6-1.748,4.737,4.737,0,0,0-2.091-1.245q-1.02-.363-4.646-1.264-4.669-1.17-6.556-2.871a7.648,7.648,0,0,1-1.406-9.972,7.828,7.828,0,0,1,3.6-2.932,14.318,14.318,0,0,1,5.668-1.01q5.418,0,8.158,2.409a8.551,8.551,0,0,1,2.878,6.429l-5.849.2a5,5,0,0,0-1.594-3.216,5.783,5.783,0,0,0-3.666-.981,6.643,6.643,0,0,0-3.947,1.049,2.13,2.13,0,0,0-.922,1.8,2.211,2.211,0,0,0,.868,1.756q1.1.939,5.345,1.944a27.86,27.86,0,0,1,6.275,2.079,8.122,8.122,0,0,1,3.189,2.939,8.627,8.627,0,0,1,1.149,4.6,8.5,8.5,0,0,1-1.379,4.653,8.247,8.247,0,0,1-3.9,3.221,16.287,16.287,0,0,1-6.287,1.056q-5.476,0-8.412-2.528a10.981,10.981,0,0,1-3.5-7.356Z" transform="translate(-27.099 -93.24)" fill="#231f20" fill-rule="evenodd"/>
    <path id="Caminho_5" data-name="Caminho 5" d="M211.509,288.407V284.24h.851V287.7h2.108v.709Zm-4.979-4.2h.851v2.277a4.541,4.541,0,0,0,.032.7.7.7,0,0,0,.257.416.886.886,0,0,0,.555.157.845.845,0,0,0,.538-.147.578.578,0,0,0,.218-.362,4.816,4.816,0,0,0,.037-.714v-2.326h.851v2.211a5.671,5.671,0,0,1-.068,1.071,1.185,1.185,0,0,1-.254.528,1.265,1.265,0,0,1-.492.342,2.129,2.129,0,0,1-.807.127,2.3,2.3,0,0,1-.91-.139,1.3,1.3,0,0,1-.489-.362,1.177,1.177,0,0,1-.237-.467,5.042,5.042,0,0,1-.083-1.066v-2.245Zm-4.854,2.841.827-.083a1,1,0,0,0,.3.609.915.915,0,0,0,.614.2.949.949,0,0,0,.616-.174.518.518,0,0,0,.208-.406.383.383,0,0,0-.088-.254.708.708,0,0,0-.3-.181q-.147-.051-.675-.183a2.269,2.269,0,0,1-.954-.418,1.111,1.111,0,0,1-.205-1.45,1.151,1.151,0,0,1,.523-.425,2.078,2.078,0,0,1,.824-.147,1.752,1.752,0,0,1,1.186.35,1.238,1.238,0,0,1,.418.934l-.851.029a.721.721,0,0,0-.232-.467.836.836,0,0,0-.533-.142.982.982,0,0,0-.575.152.32.32,0,0,0-.007.516,2.215,2.215,0,0,0,.778.284,4.028,4.028,0,0,1,.912.3,1.19,1.19,0,0,1,.465.428,1.331,1.331,0,0,1-.034,1.347,1.21,1.21,0,0,1-.567.47,2.374,2.374,0,0,1-.915.154,1.821,1.821,0,0,1-1.223-.367,1.592,1.592,0,0,1-.509-1.071Zm-5.436-.743a1.577,1.577,0,0,0,.33,1.083,1.137,1.137,0,0,0,1.675,0,1.609,1.609,0,0,0,.325-1.1,1.565,1.565,0,0,0-.318-1.078,1.175,1.175,0,0,0-1.69,0,1.583,1.583,0,0,0-.323,1.086Zm-.875.029a2.671,2.671,0,0,1,.193-1.081,1.96,1.96,0,0,1,.391-.577,1.657,1.657,0,0,1,.543-.379,2.327,2.327,0,0,1,.907-.166,1.973,1.973,0,0,1,1.487.577,2.585,2.585,0,0,1,0,3.2,1.959,1.959,0,0,1-1.479.577,1.993,1.993,0,0,1-1.492-.572,2.174,2.174,0,0,1-.553-1.58Zm-3.93-1.416V287.7h.631a2.475,2.475,0,0,0,.511-.039.774.774,0,0,0,.342-.176.888.888,0,0,0,.22-.406,2.7,2.7,0,0,0,.086-.77,2.559,2.559,0,0,0-.086-.748.953.953,0,0,0-.24-.406.8.8,0,0,0-.391-.2,3.837,3.837,0,0,0-.694-.039h-.379Zm-.851-.709h1.548a2.98,2.98,0,0,1,.8.081,1.4,1.4,0,0,1,.631.386,1.844,1.844,0,0,1,.4.68,3.137,3.137,0,0,1,.137.993,2.777,2.777,0,0,1-.13.9,1.86,1.86,0,0,1-.45.743,1.479,1.479,0,0,1-.594.335,2.565,2.565,0,0,1-.748.088h-1.594v-4.2Zm-5.707,4.2v-4.2h3.11v.709h-2.259v.934h2.1v.709h-2.1V287.7h2.343v.709Zm-4.106-3.492V287.7h.631a2.474,2.474,0,0,0,.511-.039.774.774,0,0,0,.342-.176.888.888,0,0,0,.22-.406,2.7,2.7,0,0,0,.086-.77,2.558,2.558,0,0,0-.086-.748.953.953,0,0,0-.24-.406.8.8,0,0,0-.391-.2,3.837,3.837,0,0,0-.694-.039h-.379Zm-.851-.709h1.548a2.98,2.98,0,0,1,.8.081,1.4,1.4,0,0,1,.631.386,1.844,1.844,0,0,1,.4.68,3.137,3.137,0,0,1,.137.993,2.777,2.777,0,0,1-.13.9,1.86,1.86,0,0,1-.45.743,1.479,1.479,0,0,1-.594.335,2.565,2.565,0,0,1-.748.088h-1.594v-4.2Zm-4.957,4.2v-4.2h.824l1.729,2.817v-2.817h.787v4.2h-.851l-1.7-2.763v2.763Zm-2.727-1.668-.584-1.555-.567,1.555Zm1.555,1.668h-.917l-.362-.956h-1.685l-.35.956h-.9l1.631-4.2h.9Zm-7.891-2.423h.628a3.278,3.278,0,0,0,.763-.051.448.448,0,0,0,.237-.178.538.538,0,0,0,.086-.315.515.515,0,0,0-.112-.342.507.507,0,0,0-.318-.164c-.068-.01-.276-.015-.619-.015H165.9v1.069Zm-.851,2.423v-4.2h1.788a3.112,3.112,0,0,1,.978.112.968.968,0,0,1,.489.4,1.211,1.211,0,0,1,.183.663,1.133,1.133,0,0,1-.276.783,1.331,1.331,0,0,1-.829.389,2.016,2.016,0,0,1,.452.352,4.851,4.851,0,0,1,.482.682l.514.819h-1.015l-.609-.917a5.52,5.52,0,0,0-.45-.616.686.686,0,0,0-.254-.174,1.421,1.421,0,0,0-.43-.046H165.9v1.756h-.851Zm-3.328-1.543v-.709h1.824v1.677a2.279,2.279,0,0,1-.773.457,2.782,2.782,0,0,1-1.025.2,2.311,2.311,0,0,1-1.149-.276,1.777,1.777,0,0,1-.736-.792,2.575,2.575,0,0,1-.247-1.122,2.462,2.462,0,0,1,.274-1.169,1.875,1.875,0,0,1,.8-.785,2.169,2.169,0,0,1,1.005-.21,2.018,2.018,0,0,1,1.223.328,1.484,1.484,0,0,1,.565.91l-.846.159a.9.9,0,0,0-.333-.489,1,1,0,0,0-.611-.179,1.148,1.148,0,0,0-.883.352,1.491,1.491,0,0,0-.328,1.047,1.648,1.648,0,0,0,.333,1.125,1.109,1.109,0,0,0,.871.374,1.437,1.437,0,0,0,.533-.105,1.753,1.753,0,0,0,.46-.254v-.533h-.968Zm-7.615-.56a1.577,1.577,0,0,0,.33,1.083,1.137,1.137,0,0,0,1.675,0,1.609,1.609,0,0,0,.325-1.1,1.565,1.565,0,0,0-.318-1.078,1.175,1.175,0,0,0-1.69,0,1.582,1.582,0,0,0-.323,1.086Zm-.875.029a2.671,2.671,0,0,1,.193-1.081,1.958,1.958,0,0,1,.391-.577,1.658,1.658,0,0,1,.543-.379,2.327,2.327,0,0,1,.907-.166,1.973,1.973,0,0,1,1.487.577,2.585,2.585,0,0,1,0,3.2,1.959,1.959,0,0,1-1.479.577,1.994,1.994,0,0,1-1.492-.572,2.174,2.174,0,0,1-.553-1.58Zm-2.2,2.076v-4.2h.851v4.2Zm-4.076-2.423h.628a3.276,3.276,0,0,0,.763-.051.448.448,0,0,0,.237-.178.538.538,0,0,0,.086-.315.515.515,0,0,0-.112-.342.507.507,0,0,0-.318-.164c-.068-.01-.276-.015-.619-.015h-.663v1.069Zm-.851,2.423v-4.2h1.788a3.112,3.112,0,0,1,.978.112.968.968,0,0,1,.489.4,1.211,1.211,0,0,1,.183.663,1.133,1.133,0,0,1-.276.783,1.331,1.331,0,0,1-.829.389,2.016,2.016,0,0,1,.452.352,4.851,4.851,0,0,1,.482.682l.514.819H148.87l-.609-.917a5.514,5.514,0,0,0-.45-.616.686.686,0,0,0-.254-.174,1.42,1.42,0,0,0-.43-.046h-.171v1.756H146.1Zm-8.921-2.1a1.577,1.577,0,0,0,.33,1.083,1.137,1.137,0,0,0,1.675,0,1.609,1.609,0,0,0,.325-1.1,1.566,1.566,0,0,0-.318-1.078,1.175,1.175,0,0,0-1.69,0,1.582,1.582,0,0,0-.323,1.086Zm-.875.029a2.67,2.67,0,0,1,.193-1.081,1.959,1.959,0,0,1,.391-.577,1.657,1.657,0,0,1,.543-.379,2.327,2.327,0,0,1,.907-.166,1.972,1.972,0,0,1,1.487.577,2.585,2.585,0,0,1,0,3.2,1.959,1.959,0,0,1-1.479.577,1.993,1.993,0,0,1-1.492-.572,2.174,2.174,0,0,1-.553-1.58Zm-3.93-1.416v2.783h.631a2.474,2.474,0,0,0,.511-.039.774.774,0,0,0,.342-.176.888.888,0,0,0,.22-.406,2.7,2.7,0,0,0,.086-.77,2.558,2.558,0,0,0-.086-.748.954.954,0,0,0-.24-.406.8.8,0,0,0-.391-.2,3.837,3.837,0,0,0-.694-.039h-.379Zm-.851-.709h1.548a2.978,2.978,0,0,1,.8.081,1.4,1.4,0,0,1,.631.386,1.844,1.844,0,0,1,.4.68,3.137,3.137,0,0,1,.137.993,2.777,2.777,0,0,1-.13.895,1.861,1.861,0,0,1-.45.743,1.48,1.48,0,0,1-.594.335,2.565,2.565,0,0,1-.748.088h-1.594v-4.2Zm-8.51,4.2v-4.167h.851v3.458h2.108v.709Zm-2.749-1.668-.584-1.555-.567,1.555Zm1.555,1.668h-.917l-.362-.956h-1.685l-.35.956h-.9l1.631-4.2h.9Zm-7.891-2.423h.628a3.277,3.277,0,0,0,.763-.051.448.448,0,0,0,.237-.179.538.538,0,0,0,.086-.315.515.515,0,0,0-.112-.342.507.507,0,0,0-.318-.164c-.068-.01-.276-.015-.619-.015h-.663v1.069Zm-.851,2.423v-4.2h1.788a3.113,3.113,0,0,1,.978.112.968.968,0,0,1,.489.4,1.211,1.211,0,0,1,.183.663,1.133,1.133,0,0,1-.276.783,1.331,1.331,0,0,1-.829.389,2.015,2.015,0,0,1,.452.352,4.847,4.847,0,0,1,.482.682l.514.819h-1.015l-.609-.917a5.521,5.521,0,0,0-.45-.616.686.686,0,0,0-.254-.174,1.421,1.421,0,0,0-.43-.046h-.171v1.756h-.851Zm-4.631,0v-4.2h3.11v.709H109.3v.934h2.1v.709h-2.1v1.14h2.343v.709Zm-4.106-3.492v2.783h.631a2.475,2.475,0,0,0,.511-.039.774.774,0,0,0,.342-.176.888.888,0,0,0,.22-.406,2.7,2.7,0,0,0,.086-.77,2.558,2.558,0,0,0-.086-.748.954.954,0,0,0-.24-.406.8.8,0,0,0-.391-.2,3.837,3.837,0,0,0-.694-.039Zm-.851-.709h1.548a2.978,2.978,0,0,1,.8.081,1.4,1.4,0,0,1,.631.386,1.844,1.844,0,0,1,.4.68,3.138,3.138,0,0,1,.137.993,2.777,2.777,0,0,1-.13.895,1.861,1.861,0,0,1-.45.743,1.48,1.48,0,0,1-.594.335,2.565,2.565,0,0,1-.748.088h-1.594v-4.2Zm-4.631,4.2v-4.2h3.11v.709H99.714v.934h2.1v.709h-2.1v1.14h2.343v.709Zm-4.3,0v-4.2h2.888v.709H95.412v1h1.761v.709H95.412v1.785Zm-8.969,0v-4.2H88.7v.709H86.443v.934h2.1v.709h-2.1v1.14h2.343v.709Zm-4.106-3.492v2.783h.631a2.475,2.475,0,0,0,.511-.039.774.774,0,0,0,.342-.176.888.888,0,0,0,.22-.406,2.7,2.7,0,0,0,.086-.77,2.558,2.558,0,0,0-.086-.748.954.954,0,0,0-.24-.406.8.8,0,0,0-.391-.2,3.837,3.837,0,0,0-.694-.039h-.379Zm-.851-.709h1.548a2.978,2.978,0,0,1,.8.081,1.4,1.4,0,0,1,.631.386,1.844,1.844,0,0,1,.4.68,3.137,3.137,0,0,1,.137.993,2.777,2.777,0,0,1-.13.895,1.861,1.861,0,0,1-.45.743,1.48,1.48,0,0,1-.594.335,2.565,2.565,0,0,1-.748.088H80.633v-4.2Zm-2.727,2.536-.584-1.555-.567,1.555Zm1.555,1.668h-.917l-.362-.956H76.5l-.35.956h-.9l1.631-4.2h.9l1.682,4.2Zm-7.891-3.492v2.783H72.2a2.474,2.474,0,0,0,.511-.039.775.775,0,0,0,.342-.176.888.888,0,0,0,.22-.406,2.7,2.7,0,0,0,.086-.77,2.558,2.558,0,0,0-.086-.748.953.953,0,0,0-.24-.406.8.8,0,0,0-.391-.2,3.837,3.837,0,0,0-.694-.039h-.379Zm-.851-.709H72.27a2.978,2.978,0,0,1,.8.081,1.4,1.4,0,0,1,.631.386,1.843,1.843,0,0,1,.4.68,3.137,3.137,0,0,1,.137.993,2.777,2.777,0,0,1-.13.895,1.86,1.86,0,0,1-.45.743,1.48,1.48,0,0,1-.594.335,2.564,2.564,0,0,1-.748.088H70.719v-4.2Zm-2.377,4.2v-4.2H69.2v4.2Zm-4.825-1.362.827-.083a1,1,0,0,0,.3.609.915.915,0,0,0,.614.2.949.949,0,0,0,.616-.174.518.518,0,0,0,.208-.406.383.383,0,0,0-.088-.254.708.708,0,0,0-.3-.181q-.147-.051-.675-.183a2.269,2.269,0,0,1-.954-.418,1.111,1.111,0,0,1-.205-1.45,1.151,1.151,0,0,1,.523-.425,2.078,2.078,0,0,1,.824-.147,1.752,1.752,0,0,1,1.186.35,1.238,1.238,0,0,1,.418.934l-.851.029a.721.721,0,0,0-.232-.467.836.836,0,0,0-.533-.142.982.982,0,0,0-.575.152.32.32,0,0,0-.007.516,2.215,2.215,0,0,0,.778.284,4.026,4.026,0,0,1,.912.3,1.19,1.19,0,0,1,.465.428,1.331,1.331,0,0,1-.034,1.347,1.209,1.209,0,0,1-.567.47,2.373,2.373,0,0,1-.915.154,1.821,1.821,0,0,1-1.223-.367,1.592,1.592,0,0,1-.509-1.071Zm-3.881-1.061h.628a3.277,3.277,0,0,0,.763-.051.448.448,0,0,0,.237-.179.538.538,0,0,0,.086-.315.515.515,0,0,0-.112-.342.507.507,0,0,0-.318-.164c-.068-.01-.276-.015-.619-.015h-.663V286Zm-.851,2.423v-4.2h1.788a3.112,3.112,0,0,1,.978.112.968.968,0,0,1,.489.4,1.211,1.211,0,0,1,.183.663,1.133,1.133,0,0,1-.276.783,1.331,1.331,0,0,1-.829.389,2.016,2.016,0,0,1,.452.352,4.851,4.851,0,0,1,.482.682l.514.819H61.554l-.609-.917a5.513,5.513,0,0,0-.45-.616.686.686,0,0,0-.254-.174,1.421,1.421,0,0,0-.43-.046H59.64v1.756h-.851Zm-4.631,0v-4.2h3.11v.709H55.008v.934h2.1v.709h-2.1v1.14h2.343v.709Zm-3.558,0-1.5-4.2h.919l1.066,3.11,1.025-3.11h.9l-1.494,4.2Zm-3.453,0v-4.2H48v4.2Zm-4.927,0v-4.2h.824l1.729,2.817v-2.817h.787v4.2h-.851l-1.7-2.763v2.763Zm-4.957-4.2h.851v2.277a4.539,4.539,0,0,0,.032.7.7.7,0,0,0,.257.416.886.886,0,0,0,.555.157.845.845,0,0,0,.538-.147.578.578,0,0,0,.218-.362,4.816,4.816,0,0,0,.037-.714v-2.326H40.6v2.211a5.67,5.67,0,0,1-.068,1.071,1.185,1.185,0,0,1-.254.528,1.266,1.266,0,0,1-.492.342,2.129,2.129,0,0,1-.807.127,2.3,2.3,0,0,1-.91-.139A1.3,1.3,0,0,1,37.58,288a1.178,1.178,0,0,1-.237-.467,5.042,5.042,0,0,1-.083-1.066v-2.245Z" transform="translate(-27.937 -214.439)" fill="#231f20" fill-rule="evenodd"/>
    <path id="Caminho_6" data-name="Caminho 6" d="M213.625,254.388h1.433l-.438-1.164c-.132-.355-.232-.646-.3-.878a5.969,5.969,0,0,1-.232.809l-.46,1.232Zm-1.208,1.726,1.611-4.2h.611l1.712,4.2h-.633l-.487-1.274h-1.77l-.455,1.274h-.589Zm-4.805-2.348h1.193a1.806,1.806,0,0,0,.594-.078.629.629,0,0,0,.325-.252.687.687,0,0,0,.112-.377.631.631,0,0,0-.215-.492,1.012,1.012,0,0,0-.68-.191h-1.328v1.391Zm-.558,2.348v-4.2h1.863a2.526,2.526,0,0,1,.853.112.935.935,0,0,1,.467.4,1.181,1.181,0,0,1,.174.633,1.061,1.061,0,0,1-.289.753,1.458,1.458,0,0,1-.893.389,1.45,1.45,0,0,1,.335.21,2.858,2.858,0,0,1,.46.56l.726,1.144h-.694l-.555-.875c-.161-.254-.3-.445-.4-.58a1.256,1.256,0,0,0-.284-.281.835.835,0,0,0-.254-.112,1.79,1.79,0,0,0-.308-.02h-.643v1.866h-.558Zm-3.1-4.2h.558v2.426a2.95,2.95,0,0,1-.142,1.007,1.246,1.246,0,0,1-.516.606,1.819,1.819,0,0,1-.981.235,1.985,1.985,0,0,1-.963-.2,1.174,1.174,0,0,1-.536-.589,2.8,2.8,0,0,1-.161-1.054v-2.426h.558v2.426a2.34,2.34,0,0,0,.1.807.774.774,0,0,0,.347.4,1.212,1.212,0,0,0,.6.142,1.151,1.151,0,0,0,.871-.279,1.61,1.61,0,0,0,.259-1.071v-2.426Zm-6.866,4.2v-3.71h-1.384v-.494h3.328v.494h-1.384v3.71H197.1Zm-4.152-4.2h.558v2.426a2.95,2.95,0,0,1-.142,1.007,1.246,1.246,0,0,1-.516.606,1.819,1.819,0,0,1-.981.235,1.985,1.985,0,0,1-.963-.2,1.174,1.174,0,0,1-.536-.589,2.8,2.8,0,0,1-.161-1.054v-2.426h.558v2.426a2.34,2.34,0,0,0,.1.807.774.774,0,0,0,.347.4,1.212,1.212,0,0,0,.6.142,1.151,1.151,0,0,0,.871-.279,1.61,1.61,0,0,0,.259-1.071v-2.426Zm-8.018,1.854h1.193a1.806,1.806,0,0,0,.594-.078.629.629,0,0,0,.325-.252.687.687,0,0,0,.112-.377.631.631,0,0,0-.215-.492,1.012,1.012,0,0,0-.68-.191h-1.328v1.391Zm-.558,2.348v-4.2h1.863a2.526,2.526,0,0,1,.853.112.935.935,0,0,1,.467.4,1.181,1.181,0,0,1,.174.633,1.061,1.061,0,0,1-.289.753,1.458,1.458,0,0,1-.893.389,1.451,1.451,0,0,1,.335.21,2.857,2.857,0,0,1,.46.56l.726,1.144h-.694l-.555-.875c-.161-.254-.3-.445-.4-.58a1.256,1.256,0,0,0-.284-.281.836.836,0,0,0-.254-.112,1.79,1.79,0,0,0-.308-.02h-.643v1.866h-.558Zm-4.125,0v-3.71h-1.384v-.494h3.328v.494H180.8v3.71h-.558Zm-6.761-1.35.523-.046a1.182,1.182,0,0,0,.174.521.951.951,0,0,0,.423.328,1.6,1.6,0,0,0,.646.125,1.54,1.54,0,0,0,.562-.1.782.782,0,0,0,.362-.262.61.61,0,0,0,.12-.359.558.558,0,0,0-.115-.345.844.844,0,0,0-.379-.247,7.357,7.357,0,0,0-.748-.205,3.972,3.972,0,0,1-.812-.262,1.144,1.144,0,0,1-.447-.391.965.965,0,0,1-.147-.523,1.081,1.081,0,0,1,.181-.6,1.1,1.1,0,0,1,.528-.421,2,2,0,0,1,.77-.144,2.065,2.065,0,0,1,.824.152,1.179,1.179,0,0,1,.548.443,1.284,1.284,0,0,1,.205.663l-.533.042a.864.864,0,0,0-.291-.6,1.131,1.131,0,0,0-.734-.2,1.2,1.2,0,0,0-.736.186.551.551,0,0,0-.23.445.472.472,0,0,0,.164.372,2.182,2.182,0,0,0,.839.3,5.313,5.313,0,0,1,.929.269,1.252,1.252,0,0,1,.54.428,1.031,1.031,0,0,1,.174.6,1.142,1.142,0,0,1-.191.631,1.236,1.236,0,0,1-.55.46,1.915,1.915,0,0,1-.809.164,2.424,2.424,0,0,1-.954-.166,1.334,1.334,0,0,1-.6-.5,1.408,1.408,0,0,1-.23-.753Zm-5.319,1.35v-4.2h3.035v.494h-2.477V253.7h2.318v.494h-2.318v1.433h2.577v.494h-3.135Zm-4.776-1.726h1.433l-.438-1.164c-.132-.355-.232-.646-.3-.878a5.967,5.967,0,0,1-.232.809l-.46,1.232Zm-1.208,1.726,1.611-4.2h.611l1.712,4.2h-.633l-.487-1.274h-1.77l-.455,1.274h-.589Zm-4.805-2.348h1.193a1.806,1.806,0,0,0,.594-.078.629.629,0,0,0,.325-.252.687.687,0,0,0,.112-.377.631.631,0,0,0-.215-.492,1.012,1.012,0,0,0-.68-.191h-1.328v1.391Zm-.558,2.348v-4.2h1.863a2.526,2.526,0,0,1,.853.112.935.935,0,0,1,.467.4,1.181,1.181,0,0,1,.174.633,1.061,1.061,0,0,1-.289.753,1.458,1.458,0,0,1-.893.389,1.451,1.451,0,0,1,.335.21,2.858,2.858,0,0,1,.46.56l.726,1.144h-.694l-.555-.875c-.161-.254-.3-.445-.4-.58a1.256,1.256,0,0,0-.284-.281.835.835,0,0,0-.254-.112,1.79,1.79,0,0,0-.308-.02h-.643v1.866h-.558Zm-5.165,0v-4.2h2.834v.494h-2.277v1.308h1.971v.494h-1.971v1.907h-.558Zm-5.871,0v-4.2h.572l2.206,3.3v-3.3h.533v4.2h-.572l-2.206-3.3v3.3Zm-3.128,0v-4.2h.558v4.2Zm-9.05,0v-4.2h3.035v.494h-2.477V253.7h2.318v.494h-2.318v1.433h2.577v.494H133.6Zm-5.289-.494h.9a2.09,2.09,0,0,0,.65-.078.939.939,0,0,0,.377-.218,1.328,1.328,0,0,0,.308-.533,2.617,2.617,0,0,0,.11-.812,1.989,1.989,0,0,0-.215-1.015,1.067,1.067,0,0,0-.526-.474,2.139,2.139,0,0,0-.719-.086h-.88v3.216Zm-.558.494v-4.2H129.2a3.589,3.589,0,0,1,.748.059,1.456,1.456,0,0,1,.616.3,1.7,1.7,0,0,1,.5.719,2.821,2.821,0,0,1,.166,1,2.9,2.9,0,0,1-.112.849,2.059,2.059,0,0,1-.286.611,1.532,1.532,0,0,1-.384.381,1.511,1.511,0,0,1-.5.21,2.8,2.8,0,0,1-.675.071Zm-7.9-1.726h1.433l-.438-1.164c-.132-.355-.232-.646-.3-.878a5.97,5.97,0,0,1-.232.809l-.46,1.232Zm-1.208,1.726,1.611-4.2h.611l1.712,4.2h-.633l-.487-1.274h-1.77l-.455,1.274Zm-2.673,0v-4.2h.558v4.2Zm-2.937-1.475.558.142a1.869,1.869,0,0,1-.628,1.044,1.733,1.733,0,0,1-1.11.359,2.032,2.032,0,0,1-1.1-.276,1.706,1.706,0,0,1-.646-.8,2.876,2.876,0,0,1-.223-1.125,2.483,2.483,0,0,1,.249-1.144,1.733,1.733,0,0,1,.714-.743,2.086,2.086,0,0,1,1.017-.254,1.724,1.724,0,0,1,1.059.32,1.668,1.668,0,0,1,.6.9l-.545.13a1.311,1.311,0,0,0-.423-.668,1.132,1.132,0,0,0-.7-.21,1.351,1.351,0,0,0-.807.232,1.213,1.213,0,0,0-.455.624,2.7,2.7,0,0,0,.024,1.741,1.151,1.151,0,0,0,.484.6,1.353,1.353,0,0,0,.712.2,1.192,1.192,0,0,0,.787-.269,1.379,1.379,0,0,0,.438-.8Zm-8.835,1.475v-4.2h.572l2.206,3.3v-3.3h.533v4.2h-.572l-2.206-3.3v3.3Zm-3.927-4.947-.32.487H99.37l.614-.8h.545l.655.8H100.6l-.32-.487Zm-1.567,4.947v-4.2h3.035v.494H99.267V253.7h2.318v.494H99.267v1.433h2.577v.494H98.71Zm-5.289-.494h.895a2.09,2.09,0,0,0,.65-.078.939.939,0,0,0,.377-.218,1.329,1.329,0,0,0,.308-.533,2.617,2.617,0,0,0,.11-.812,1.989,1.989,0,0,0-.215-1.015,1.067,1.067,0,0,0-.526-.474,2.139,2.139,0,0,0-.719-.086h-.88v3.216Zm-.558.494v-4.2h1.448a3.589,3.589,0,0,1,.748.059,1.456,1.456,0,0,1,.616.3,1.7,1.7,0,0,1,.5.719,2.821,2.821,0,0,1,.166,1,2.9,2.9,0,0,1-.112.849,2.059,2.059,0,0,1-.286.611,1.533,1.533,0,0,1-.384.381,1.511,1.511,0,0,1-.5.21,2.8,2.8,0,0,1-.675.071H92.863Zm-5.842,0v-4.2h.572l2.206,3.3v-3.3h.533v4.2H89.76l-2.206-3.3v3.3Zm-5.495,0v-4.2h3.035v.494H82.084V253.7H84.4v.494H82.084v1.433h2.577v.494H81.526Zm-4.125,0v-3.71H76.017v-.494h3.328v.494H77.961v3.71H77.4Zm-6.91,0v-4.2h.572l2.206,3.3v-3.3H73.8v4.2h-.572l-2.206-3.3v3.3Zm-3.128,0v-4.2h.558v4.2ZM62,253.767H63.2a1.806,1.806,0,0,0,.594-.078.629.629,0,0,0,.325-.252.687.687,0,0,0,.112-.377.631.631,0,0,0-.215-.492,1.012,1.012,0,0,0-.68-.191H62.005v1.391Zm-.558,2.348v-4.2h1.863a2.526,2.526,0,0,1,.853.112.935.935,0,0,1,.467.4,1.181,1.181,0,0,1,.174.633,1.061,1.061,0,0,1-.289.753,1.458,1.458,0,0,1-.893.389,1.451,1.451,0,0,1,.335.21,2.858,2.858,0,0,1,.46.56l.726,1.144h-.694l-.555-.875c-.161-.254-.3-.445-.4-.58a1.256,1.256,0,0,0-.284-.281.835.835,0,0,0-.254-.112,1.79,1.79,0,0,0-.308-.02H62v1.866h-.558Zm-5.512,0v-4.2h3.035v.494H56.491V253.7h2.318v.494H56.491v1.433h2.577v.494H55.934Zm-4.966-2.206h1.086a1.149,1.149,0,0,0,.765-.2.714.714,0,0,0,.225-.565.758.758,0,0,0-.132-.45.629.629,0,0,0-.352-.249,2.407,2.407,0,0,0-.518-.037H50.965v1.5Zm-.558,2.206v-4.2H52a4.161,4.161,0,0,1,.641.039,1.283,1.283,0,0,1,.518.2,1.05,1.05,0,0,1,.337.406,1.361,1.361,0,0,1-.215,1.477,1.638,1.638,0,0,1-1.232.372H50.967v1.714H50.41Zm-3.084-4.2h.558v2.426a2.951,2.951,0,0,1-.142,1.007,1.246,1.246,0,0,1-.516.606,1.819,1.819,0,0,1-.981.235,1.985,1.985,0,0,1-.963-.2,1.174,1.174,0,0,1-.536-.589,2.8,2.8,0,0,1-.161-1.054v-2.426h.558v2.426a2.34,2.34,0,0,0,.1.807.774.774,0,0,0,.347.4,1.212,1.212,0,0,0,.6.142,1.151,1.151,0,0,0,.871-.279,1.61,1.61,0,0,0,.259-1.071v-2.426Zm-8.446,2.851.523-.046a1.182,1.182,0,0,0,.174.521.951.951,0,0,0,.423.328,1.6,1.6,0,0,0,.646.125,1.54,1.54,0,0,0,.562-.1.782.782,0,0,0,.362-.262.61.61,0,0,0,.12-.359.557.557,0,0,0-.115-.345.844.844,0,0,0-.379-.247,7.357,7.357,0,0,0-.748-.205,3.972,3.972,0,0,1-.812-.262,1.144,1.144,0,0,1-.447-.391.965.965,0,0,1-.147-.523,1.081,1.081,0,0,1,.181-.6,1.1,1.1,0,0,1,.528-.421,2,2,0,0,1,.77-.144,2.065,2.065,0,0,1,.824.152,1.179,1.179,0,0,1,.548.443,1.284,1.284,0,0,1,.205.663l-.533.042a.864.864,0,0,0-.291-.6,1.131,1.131,0,0,0-.734-.2,1.2,1.2,0,0,0-.736.186.551.551,0,0,0-.23.445.472.472,0,0,0,.164.372,2.182,2.182,0,0,0,.839.3,5.312,5.312,0,0,1,.929.269,1.252,1.252,0,0,1,.54.428,1.031,1.031,0,0,1,.174.6,1.142,1.142,0,0,1-.191.631,1.236,1.236,0,0,1-.55.46,1.915,1.915,0,0,1-.809.164,2.423,2.423,0,0,1-.954-.166,1.334,1.334,0,0,1-.6-.5,1.408,1.408,0,0,1-.23-.753Z" transform="translate(-29.161 -189.297)" fill="#231f20" fill-rule="evenodd"/>
    <circle id="Elipse_1" data-name="Elipse 1" cx="10.745" cy="10.745" r="10.745" transform="matrix(0.182, -0.983, 0.983, 0.182, 6.45, 24.484)" fill="#d81f05"/>
    <circle id="Elipse_2" data-name="Elipse 2" cx="10.745" cy="10.745" r="10.745" transform="matrix(0.182, -0.983, 0.983, 0.182, 6.45, 24.484)" fill="none" stroke="#d81f05" stroke-miterlimit="22.93" stroke-width="0.57"/>
    <path id="Caminho_7" data-name="Caminho 7" d="M81.5,73.308a.6.6,0,0,0,0-.841L80.36,71.33v1.682l.3.3a.6.6,0,0,0,.839,0" transform="translate(-60.498 -53.676)" fill="#fff" fill-rule="evenodd"/>
    <path id="Caminho_8" data-name="Caminho 8" d="M69.15,70.8v2.4a.594.594,0,0,0,1.188,0V69.365a.593.593,0,0,0-1.012-.423l-1.594,1.594a.594.594,0,0,0,.839.841l.58-.58Z" transform="translate(-50.826 -51.74)" fill="#fff" fill-rule="evenodd"/>
    <path id="Caminho_9" data-name="Caminho 9" d="M67.682,47.92a.6.6,0,0,0,0,.841L68.819,49.9V48.216l-.3-.3a.6.6,0,0,0-.839,0" transform="translate(-50.788 -35.858)" fill="#fff" fill-rule="evenodd"/>
    <path id="Caminho_10" data-name="Caminho 10" d="M75.5,41.573v-2.4a.594.594,0,0,0-1.188,0v3.834a.593.593,0,0,0,1.012.423l1.6-1.6a.594.594,0,0,0-.839-.841l-.58.58Z" transform="translate(-55.927 -28.934)" fill="#fff" fill-rule="evenodd"/>
    <path id="Caminho_11" data-name="Caminho 11" d="M86.138,55.052a.6.6,0,0,0-.841,0L84.16,56.189h1.682l.3-.3a.6.6,0,0,0,0-.839" transform="translate(-63.369 -41.247)" fill="#fff" fill-rule="evenodd"/>
    <path id="Caminho_12" data-name="Caminho 12" d="M83.628,62.858h2.4a.594.594,0,0,0,0-1.188H82.195a.593.593,0,0,0-.423,1.012l1.6,1.594a.594.594,0,0,0,.841-.839l-.58-.58Z" transform="translate(-61.433 -46.378)" fill="#fff" fill-rule="evenodd"/>
    <path id="Caminho_13" data-name="Caminho 13" d="M60.75,68.807a.6.6,0,0,0,.841,0l1.137-1.137H61.046l-.3.3a.6.6,0,0,0,0,.839" transform="translate(-45.551 -50.911)" fill="#fff" fill-rule="evenodd"/>
    <path id="Caminho_14" data-name="Caminho 14" d="M54.393,56.46h-2.4a.594.594,0,0,0,0,1.188h3.832a.593.593,0,0,0,.423-1.012l-1.594-1.594a.594.594,0,0,0-.841.839l.58.58Z" transform="translate(-38.619 -41.239)" fill="#fff" fill-rule="evenodd"/>
    <path id="Caminho_15" data-name="Caminho 15" d="M74.31,39.074l0-.024.007-.029.01-.032.007-.024.01-.024.007-.017.012-.022.012-.024.017-.024.015-.022.01-.015.017-.022.012-.012.015-.017.022-.022.015-.015.02-.015.015-.012.02-.012.015-.012.022-.012.022-.012.02-.012.027-.01.024-.01.032-.012.022-.007.024,0,.027,0,.02,0,.02,0h.024l.02,0h.059l.022,0,.02,0,.027,0,.017,0,.02,0,.024.007.02,0,.024.01.02.007.02.007.017.01.022.012.024.015.029.017.017.015.022.017.02.017.017.017.02.02.012.015.017.02.015.02.017.024.015.024.012.024.012.024.012.027.007.022.012.039.01.034.01.049,0,.037,0,.049v2.392l.068-.068.068-.068.078-.081.1-.1.088-.086.076-.076.076-.078.037-.034.02-.02.022-.017.022-.017.032-.02L76.2,40.9l.032-.017.032-.015.027-.01.02-.007.02,0,.015,0,.015,0,.017,0,.022,0,.022,0,.024,0,.02,0h.054l.015,0h.015l.015,0,.01,0,.02,0,.015,0,.017,0,.017,0,.017,0,.015,0,.015,0,.017,0,.01,0,.017.007.012,0,.015.007.012.007.012.007.012.007.015.007.012.01.012.007.015.012.015.01.012.01.012.012.012.01.01.01.012.012.007.007.01.012.01.01.007.012.007.01.01.01.01.015.01.015.01.017.01.02.01.017.007.015.007.017.007.022.007.02,0,.015,0,.017,0,.017,0,.02,0,.024,0,.017,0,.015v.017l0,.022v.061l0,.02,0,.024,0,.015,0,.017,0,.02,0,.012,0,.017,0,.02,0,.017-.01.027-.012.024-.01.024-.012.02-.012.022-.01.015-.012.02-.02.024-.015.02-.017.017-.017.017-.012.012-.017.017-.024.027-.024.022-.049.049-.039.042-.039.037-.034.037-.02.017-.044.046-.032.032-.073.071-.083.086-.073.071-.034.034-.479.479-.049.051-.076.073-.073.073-.078.078-.056.059-.076.073-.034.034-.042.042-.039.039-.034.029-.042.032-.022.012-.027.017-.027.012-.024.012-.022.007-.027.01-.02.007-.022,0-.012,0-.017,0-.02,0-.02,0-.015,0-.022,0h-.064l-.017,0-.027,0-.029,0-.034-.007-.034-.01-.034-.012-.032-.012-.027-.012-.022-.012-.027-.015-.02-.012-.022-.015-.027-.022-.029-.027-.022-.022-.027-.029-.02-.024-.022-.032-.01-.017-.017-.029-.012-.024-.01-.022-.012-.032-.012-.039-.007-.029,0-.034,0-.02,0-.024v-.037l0-.032V39.235l0-.086,0-.032V39.1Z" transform="translate(-55.92 -28.934)" fill="#fff" fill-rule="evenodd"/>
    <path id="Caminho_16" data-name="Caminho 16" d="M68.823,49.9v-1.68l-.073-.073-.066-.066-.066-.066-.064-.064L68.5,47.9l-.032-.024-.034-.027-.046-.027-.042-.022-.034-.015-.042-.012-.044-.012-.037,0-.046,0-.046,0-.034,0h-.022L68,47.76l-.032.007-.032.007-.037.012-.032.015-.037.017-.027.015-.01.007-.02.012-.012.007-.024.02-.017.015-.017.015-.02.02-.022.022-.015.02-.015.017-.017.022-.015.027-.015.024-.015.024-.01.022-.012.029-.007.024-.01.034-.007.029-.007.039,0,.037,0,.044,0,.039,0,.027.007.044.007.039.01.032.017.049.022.046.022.037.029.046.044.051.059.059.081.081.061.061.064.061.068.071.049.049.47.47Z" transform="translate(-50.79 -35.862)" fill="#fff" fill-rule="evenodd"/>
    <path id="Caminho_17" data-name="Caminho 17" d="M86.151,61.73l.022,0,.032.007.029.01.024.007.024.01.017.007.024.012.022.012.024.017.022.015.017.01.02.017.012.012.02.015.02.022.015.015.015.02.012.015.015.02.01.015.015.022.01.022.012.02.012.027.01.024.01.032.007.022,0,.024.007.027,0,.02,0,.02,0,.024v.078l0,.022,0,.02,0,.027,0,.017,0,.02,0,.024-.007.02-.007.024-.01.02-.007.02-.01.017-.01.022-.015.024-.02.029-.012.017-.02.022-.015.02-.02.017-.02.02-.015.012-.02.017-.02.015-.024.017-.024.015-.022.012-.027.012-.024.012-.022.007-.039.012-.037.01-.049.01-.037,0-.049,0H83.65l.068.068.068.068.081.078.1.1.086.088.076.076.078.076.037.037.017.02.017.022.017.022.02.032.017.024.015.032.015.032.01.027.007.02,0,.02,0,.015,0,.015,0,.017,0,.022,0,.022,0,.027,0,.017v.054l0,.015v.015l0,.015v.01l0,.02,0,.015,0,.017,0,.017,0,.017,0,.015,0,.015,0,.017,0,.01-.007.017,0,.012-.007.015,0,.012-.007.012-.007.012-.01.015-.01.012,0,.012-.012.015-.012.015-.01.012-.012.012-.01.012-.01.01-.012.012-.007.007-.012.01-.01.01-.012.007-.007.007-.012.01-.015.01-.015.01-.017.01-.02.01-.015.01-.017.007-.015.007-.022.007-.02.007-.017,0-.015,0-.017,0-.022,0-.024,0-.017,0-.015,0h-.017l-.022,0h-.061l-.02,0-.022,0-.017,0-.015,0-.022,0-.01,0-.017,0-.02-.007-.02,0-.024-.01-.027-.012-.024-.01-.02-.012-.02-.012-.017-.01-.02-.012-.024-.02-.02-.015-.017-.017-.017-.017-.012-.012-.017-.017-.027-.024-.022-.024-.049-.049-.042-.039-.037-.039-.034-.034-.02-.02-.044-.044-.032-.032-.073-.073-.083-.083-.073-.073-.034-.034-.479-.479-.049-.049-.076-.076-.073-.073-.078-.078-.056-.056-.076-.076-.034-.034-.042-.042-.039-.039-.029-.034-.032-.042-.012-.022-.017-.027-.012-.027-.012-.024-.007-.022-.01-.027,0-.02-.007-.022,0-.012,0-.017,0-.02,0-.02,0-.015v-.022l0-.024v-.039l0-.017,0-.027,0-.029.007-.034.007-.034.012-.034.012-.032.012-.027.012-.022L81.708,62l.012-.02.017-.022.02-.027.027-.029.022-.022.029-.027.027-.02.032-.022.015-.01.029-.017.024-.012.022-.01.032-.012.039-.012.032-.007.032,0,.02,0,.024,0H82.2l.029,0h3.756l.088,0,.029,0h.02Z" transform="translate(-61.45 -46.416)" fill="#fff" fill-rule="evenodd"/>
    <path id="Caminho_18" data-name="Caminho 18" d="M84.19,56.243h1.682l.073-.073.064-.066.066-.066.064-.064.051-.051.027-.032.024-.034.027-.046.022-.042.015-.034.012-.042.012-.044.007-.037,0-.046v-.081l0-.022-.007-.046-.007-.032-.007-.032-.012-.037-.012-.032-.02-.037-.015-.027-.007-.01-.01-.02-.01-.012-.017-.024-.015-.017-.017-.017-.02-.02-.022-.022-.02-.015L86.1,55.05l-.022-.017-.027-.015L86.031,55l-.024-.015-.022-.01-.029-.01-.024-.01-.034-.01-.029-.007-.039,0-.037,0-.044,0-.037,0-.029,0-.044.007-.037.007-.034.01-.046.017L85.471,55l-.037.022-.044.029-.054.044-.056.059-.083.081-.059.061-.064.064-.068.068-.051.049-.47.469Z" transform="translate(-63.391 -41.286)" fill="#fff" fill-rule="evenodd"/>
    <path id="Caminho_19" data-name="Caminho 19" d="M70.325,73.321l0,.022-.007.032-.01.029-.007.024-.01.024-.01.017-.01.024-.015.022-.015.027-.015.02-.012.017-.015.02-.012.012-.017.02-.02.02-.017.015-.017.015L70.1,73.7l-.017.012-.017.01-.02.015-.022.012-.022.01-.024.012-.024.01-.032.01-.022.007-.027.007-.027,0-.02,0-.017,0-.027,0H69.7l-.02,0-.02,0-.027,0-.017,0-.022,0-.022,0-.022-.007-.022-.007-.02-.007-.02-.01-.02-.01-.02-.01-.024-.015-.029-.02-.017-.012-.022-.017-.02-.017-.02-.02-.017-.017-.015-.017-.015-.017-.015-.022-.017-.024-.015-.024-.012-.022-.015-.027-.01-.024-.01-.022-.012-.039-.007-.034-.01-.049,0-.039V70.822l-.068.068-.068.068-.081.078-.1.1-.086.086-.076.076-.076.078-.037.037-.02.017-.022.017-.024.017-.029.022-.024.015-.032.015-.032.015-.029.012-.017,0-.02,0-.015,0-.017,0-.017,0-.02,0-.022,0-.027,0H68.1l-.017,0-.012,0h-.012l-.017,0-.017,0-.017,0-.015,0-.017,0-.015,0-.015,0-.017-.007-.012,0-.015-.007-.015,0-.012-.007-.012,0-.012-.007-.012-.007-.015-.01-.015-.007-.01-.007-.017-.012-.015-.012-.01-.01-.012-.01-.012-.012-.01-.01-.012-.012-.007-.007-.01-.012-.01-.01-.01-.012-.007-.007-.007-.012-.01-.015-.01-.015-.01-.017-.012-.02-.007-.015-.007-.017-.007-.015-.01-.022-.007-.02,0-.017,0-.015,0-.017,0-.022,0-.024,0-.015,0-.017,0-.017v-.02l0-.024,0-.017v-.039l0-.024v-.017l0-.015,0-.022,0-.01,0-.017,0-.02.007-.02.01-.024.01-.027.012-.022.01-.022.015-.02.01-.017.012-.02.02-.024.015-.02.015-.015.02-.02.012-.012.017-.017.024-.024.022-.024.049-.049.042-.039.039-.039.034-.034.02-.02.044-.044.032-.032.071-.073.086-.083.073-.073.034-.034.479-.479.049-.049.073-.076.076-.073.078-.078.056-.056.076-.076.034-.034.042-.042.037-.039.037-.029.042-.029.02-.015.029-.017.027-.012.022-.01.022-.01.029-.01.017,0,.022-.007.015,0,.017,0,.017,0,.02,0,.017,0h.02l.027,0h.017l.02,0h.02l.024,0,.032,0,.032.007.037.01.034.01.029.012.029.012.022.012.024.015.02.012.024.017.027.02.029.027.022.022.027.032.02.024.022.032.01.015.017.032.01.022.01.022.012.034.012.037.007.032.007.032,0,.02,0,.024,0,.039v3.873l0,.029,0,.02Z" transform="translate(-50.82 -51.757)" fill="#fff" fill-rule="evenodd"/>
    <path id="Caminho_20" data-name="Caminho 20" d="M80.36,71.36v1.682l.073.073.064.064.068.066.061.064.054.051.029.027.037.024.046.029.042.02.034.015.042.015.042.01.039.007.044,0h.083l.022,0,.044-.007.034-.007.029-.007.037-.012.032-.012.039-.02.027-.015.01-.007.017-.01.015-.01.022-.017.02-.015.017-.017.02-.017.022-.024.015-.017.015-.02.015-.022.017-.024L81.6,73.2l.012-.024.01-.022.012-.029.01-.024.01-.034,0-.029L81.666,73l0-.037v-.081l0-.029-.007-.042-.007-.039-.01-.034-.017-.046-.024-.049-.02-.037-.032-.044-.044-.051-.056-.059-.083-.083-.059-.059-.064-.064-.068-.068-.051-.049-.47-.47Z" transform="translate(-60.498 -53.699)" fill="#fff" fill-rule="evenodd"/>
    <path id="Caminho_21" data-name="Caminho 21" d="M51.932,57.593l-.022,0-.032-.007-.029-.01-.024-.007-.024-.01-.017-.007-.024-.012-.022-.012-.024-.017-.022-.015-.017-.01-.02-.017-.012-.012-.02-.015-.02-.022-.015-.015-.015-.02-.012-.015-.015-.02-.01-.015-.015-.022-.01-.022-.012-.02-.012-.027-.01-.024-.01-.032-.007-.022,0-.024-.007-.027,0-.02,0-.02,0-.024v-.078l0-.02,0-.022,0-.027,0-.017,0-.02,0-.024.007-.02.007-.024.01-.017.007-.022.01-.017.01-.022.015-.024.02-.029.012-.017.02-.022.015-.02.02-.017.02-.02.015-.012.02-.017.02-.015.024-.017.024-.015.024-.012.024-.012.024-.012.022-.007.039-.012.037-.01.049-.007.037,0,.049,0h2.392l-.068-.068-.068-.068-.081-.078-.1-.1-.086-.088-.076-.076-.078-.076-.037-.037-.017-.02-.017-.022-.017-.022-.02-.032-.017-.024-.015-.032-.015-.032-.01-.027-.007-.02,0-.017,0-.017,0-.015,0-.017,0-.022,0-.022,0-.024,0-.02v-.054l0-.015v-.015l0-.015v-.01l0-.02,0-.015,0-.017,0-.017,0-.017,0-.015,0-.015,0-.017,0-.01.007-.017,0-.012.007-.015,0-.012.007-.012.007-.012.01-.015.01-.012,0-.01.012-.017.012-.015.01-.012.012-.012.01-.012.01-.01.012-.012.007-.007.012-.01.01-.007.012-.01.01-.007.01-.01.015-.01.015-.01.017-.01.02-.01.015-.01.017-.007.015-.007.022-.007.02-.007.017,0,.015,0,.017,0,.022,0,.024,0,.017,0,.015,0h.017l.022,0h.061l.02,0,.022,0,.017,0,.015,0,.022,0,.01,0,.017,0,.02,0,.02,0,.024.01.027.012.024.01.02.012.02.012.017.01.02.012.024.02.02.017.017.015L54.7,55l.012.012.017.017.027.027.022.022.049.049.042.042.037.037.034.034.02.02L55,55.3l.032.032.073.073.083.083.073.073.034.034.479.479.049.049.076.076.073.073.078.078.056.056.076.076.034.034.042.042.039.039.029.034.032.042.012.022.017.027.012.027.012.024.007.022.01.027,0,.02.007.022,0,.012,0,.017,0,.02,0,.02,0,.015v.022l0,.024v.039l0,.017,0,.027,0,.029-.007.034-.007.034-.012.034-.012.032-.012.027-.012.022-.015.027-.012.02-.017.022-.02.027-.027.029-.022.022-.029.027-.027.02-.032.022-.015.01-.029.017-.024.012-.022.01-.032.012-.039.012L56,57.588l-.032,0-.02,0-.024,0-.039,0H52.1l-.088,0h-.029l-.02,0Z" transform="translate(-38.65 -41.203)" fill="#fff" fill-rule="evenodd"/>
    <path id="Caminho_22" data-name="Caminho 22" d="M62.762,67.62H61.08l-.073.073-.064.066-.066.066-.064.064-.051.054-.027.029-.024.037-.027.044-.022.042-.015.034-.012.042-.012.044-.007.037,0,.046v.081l0,.022.007.046.007.032.007.032.012.037.012.032.02.037.015.027.007.012.01.017.01.012.017.024.015.017.017.017.02.02.022.022.02.015.017.015.022.017.027.017.024.012.024.015.022.01L61,68.9l.024.007.034.01.029.007.039.007.037,0,.044,0,.037,0,.029,0,.044,0,.037-.01.034-.01.046-.017.049-.022.037-.022.044-.029.054-.044.056-.059.083-.081.059-.061.064-.064.068-.068L62,68.388l.47-.47Z" transform="translate(-45.577 -50.873)" fill="#fff" fill-rule="evenodd"/>
    <circle id="Elipse_3" data-name="Elipse 3" cx="10.745" cy="10.745" r="10.745" transform="translate(21.959 15.881) rotate(-45)" fill="#00c1b4"/>
    <circle id="Elipse_4" data-name="Elipse 4" cx="10.745" cy="10.745" r="10.745" transform="translate(21.959 15.881) rotate(-45)" fill="none" stroke="#00c1b4" stroke-miterlimit="22.93" stroke-width="0.57"/>
    <path id="Caminho_23" data-name="Caminho 23" d="M125.571,50.9l.433.861,1.531-5.3a.57.57,0,0,1,1.118.015l1.061,5.947,1.14-7.967a.691.691,0,0,1,1.108-.081l1.778,6.128h1.421l.105,0-.394-.357a.38.38,0,0,1,0-.57.473.473,0,0,1,.624,0l1.184,1.083a.38.38,0,0,1,0,.57.456.456,0,0,1-.315.117h-2.908a.4.4,0,0,1-.186-.044c-.235-.039-.489-.391-.6-.956l-1.1-4.118-1.1,7.312c-.223.819-1.076.981-1.372.029l-1.125-5.24L126.779,52.3c-.218.724-1,.844-1.3.289a11.678,11.678,0,0,1-.714-1.306h-1.347a.4.4,0,0,1-.374-.443.457.457,0,0,1,.44-.443h1.511c.232,0,.374.083.58.5" transform="translate(-92.741 -33.133)" fill="#fff" fill-rule="evenodd"/>
    <path id="Caminho_24" data-name="Caminho 24" d="M171.023,75.383a.38.38,0,0,1,0-.57l.223-.2h1.247l-.844.773a.473.473,0,0,1-.624,0" transform="translate(-128.894 -56.154)" fill="#fff" fill-rule="evenodd"/>
    <path id="Caminho_25" data-name="Caminho 25" d="M171.24,74.61h1.25l-.768.7-.1.086-.046.034-.056.029-.061.022-.059.012-.059,0-.059,0-.051-.007-.051-.012-.056-.024-.046-.024-.044-.032-.029-.027-.022-.022-.02-.027-.022-.034-.022-.042-.015-.039-.01-.046,0-.037,0-.037,0-.032,0-.032.01-.032.012-.034.01-.027.015-.027.012-.017.017-.024.02-.022.027-.027.029-.027.049-.044Z" transform="translate(-128.89 -56.154)" fill="#fff" fill-rule="evenodd"/>
    <circle id="Elipse_5" data-name="Elipse 5" cx="10.745" cy="10.745" r="10.745" transform="translate(44.279 5.342) rotate(-0.92)" fill="#00a5da"/>
    <circle id="Elipse_6" data-name="Elipse 6" cx="10.745" cy="10.745" r="10.745" transform="translate(44.279 5.342) rotate(-0.92)" fill="none" stroke="#00a5da" stroke-miterlimit="22.93" stroke-width="0.57"/>
    <path id="Caminho_26" data-name="Caminho 26" d="M207.78,53.771a2.238,2.238,0,1,0,0,4.475H212a2.238,2.238,0,1,0,0-4.475Zm3.48,4.9h-3.48a2.658,2.658,0,1,1,0-5.316H212a2.658,2.658,0,1,1,0,5.316Z" transform="translate(-154.727 -40.093)" fill="#fff" fill-rule="evenodd"/>
    <path id="Caminho_27" data-name="Caminho 27" d="M202.842,44.861a3.034,3.034,0,0,0-2.731,3.027,3.07,3.07,0,0,0,2.7,3.022l.567.029a.49.49,0,0,1,.46.511.509.509,0,0,1-.435.46,4.91,4.91,0,0,1-.646-.034,4.048,4.048,0,0,1-3.6-3.988,3.917,3.917,0,0,1,3.445-3.964c.1-.01,2.037-.042,2.037-.042h.115l-.474-.474a.485.485,0,0,1,.687-.685l1.3,1.3a.484.484,0,0,1-.345.827Z" transform="translate(-150.24 -31.958)" fill="#fff" fill-rule="evenodd"/>
    <path id="Caminho_28" data-name="Caminho 28" d="M204.74,43.858l-.428-.428-.037-.039-.049-.054-.032-.046-.027-.051-.015-.042-.012-.039-.01-.046,0-.037v-.051l0-.049.01-.049.01-.039.022-.051.029-.056.029-.039.034-.039.032-.029.044-.034.042-.024.054-.024.044-.015.056-.012.032,0,.076-.01.059.007.046.02.032.01.032.015.039.02.044.027.049.042.056.056.147.147.362.362.418.418.3.3.059.059.032.044.027.049.015.032.01.027.012.039.01.054,0,.049,0,.061-.007.054-.012.046-.012.037-.02.042-.022.039-.022.032-.027.032-.032.032-.044.037-.027.02-.039.02-.049.022-.049.015-.037.01-.046,0-.054,0h-.858l-1.475,0h-.7l-.073,0-.054,0-.059.007-.066.01-.059.012-.064.01-.064.015-.076.02-.073.02-.064.02-.073.024-.09.032-.083.034-.081.034-.1.049-.108.056-.093.054-.076.046-.078.054-.081.056-.086.066-.086.071-.083.073-.066.066-.068.068-.108.12-.076.09-.086.112-.093.137-.09.149-.073.134-.071.149-.046.112-.044.122-.034.1-.029.1-.037.154-.027.134-.02.144-.01.081-.007.108,0,.1,0,.1,0,.1.017.2.015.12.02.115.015.071.032.132.027.1.044.13.037.1.039.088.037.081.056.117.078.142.059.09.09.134.064.086.066.083.076.086.068.073.073.076.061.059.054.049.064.054.073.061.086.064.086.061.086.056.078.049.076.044.071.039.088.044.088.039.059.027.073.029.09.034.091.032.071.022.09.024.1.024.142.029.186.027.169.01.21.012.134,0,.061,0,.061.012.051.017.044.02.044.022.032.024.034.027.039.042.027.032.02.029.024.042.017.042.017.049.012.056,0,.044v.051l-.007.054-.01.049-.015.044-.022.046-.024.039-.032.044-.042.044-.022.017-.027.022-.034.022-.027.017-.034.017-.032.012-.044.017-.037.01-.054.007-.061,0h-.059l-.1,0-.154-.012-.254-.022-.252-.039-.139-.029-.276-.068-.178-.056-.112-.042-.046-.017-.054-.022-.056-.024-.056-.024L201.5,51.5l-.051-.024-.054-.027-.051-.024-.064-.034-.049-.027-.054-.029-.044-.027-.051-.029-.042-.024-.034-.022-.039-.027-.039-.024-.032-.022-.046-.032-.029-.022-.037-.024-.032-.024-.046-.037-.051-.039-.044-.034-.037-.032-.042-.037-.034-.027-.037-.032-.046-.044-.037-.037-.044-.042-.034-.034-.049-.049-.042-.044-.037-.042-.046-.051-.034-.039-.042-.049-.027-.034L200,50.329l-.044-.056-.046-.064-.039-.054-.037-.051-.042-.061-.044-.068-.034-.054-.017-.029-.037-.064-.037-.064-.029-.056-.037-.071-.029-.061-.037-.078-.029-.064-.022-.051-.022-.054-.02-.051-.022-.061-.02-.049-.017-.051-.017-.054-.015-.051-.017-.056-.015-.049-.015-.056-.015-.064-.015-.064-.012-.051-.01-.059-.01-.051-.01-.049,0-.034-.007-.054-.007-.056-.007-.044,0-.056,0-.054,0-.054-.01-.193,0-.1v-.027l0-.044v-.073l0-.039,0-.042,0-.034v-.027l0-.044,0-.061.007-.061,0-.059.01-.071.01-.061.01-.064.01-.054.012-.061.015-.066.015-.056.015-.061.017-.068.02-.071.022-.068.027-.083.022-.068.022-.056.017-.049.022-.056.024-.054.027-.066.022-.051.027-.056.029-.059.027-.054.022-.039.029-.056.027-.051.027-.044.032-.054.034-.056.049-.076.039-.059.032-.046.032-.042.027-.039.034-.044.032-.042.034-.042.034-.042.037-.044.032-.039.032-.034.039-.044.042-.044.034-.037.046-.046.046-.044.044-.042.039-.037.044-.039.037-.032.044-.037.032-.027.039-.032.029-.024.042-.032.039-.029.039-.027.042-.029.042-.029.056-.037.039-.024.051-.034.039-.022.056-.032.037-.022.049-.027.059-.032.056-.029.046-.022.034-.015.044-.022.059-.024.037-.017.061-.024.056-.022.049-.017.061-.022.059-.02.081-.024.073-.022.049-.012.049-.015.066-.015.081-.017.042-.007.046-.01.054-.01.049-.007.037,0,.042,0,.061-.007.071,0,.086,0,.061,0,.166,0h.105l.144,0,.108,0,.176,0,.149,0,.112,0,.117,0,.186,0,.134,0,.171,0Z" transform="translate(-150.232 -31.934)" fill="#fff" fill-rule="evenodd"/>
    <path id="Caminho_29" data-name="Caminho 29" d="M222.468,55.74l.428.428.039.039.049.054.032.049.027.051.015.039.012.042.01.044,0,.039v.051l0,.049-.01.049-.012.039-.02.051-.032.054-.027.039-.034.039-.032.032-.046.032-.039.024-.054.027-.044.012-.056.012-.032,0-.076.007-.059-.007-.049-.02-.032-.01L222.395,57l-.039-.022-.042-.027-.051-.042-.054-.054-.147-.147-.362-.362-.421-.421-.3-.3-.056-.061-.032-.044-.029-.046-.015-.032-.01-.027-.01-.039-.012-.056,0-.046,0-.064.007-.054.012-.046.015-.037.017-.039.022-.039.024-.032.024-.032.032-.032.044-.037.029-.02.037-.022.051-.022.049-.015.034-.007.049,0,.054,0h.078l.78,0,1.475,0,.626,0h.073l.073,0,.056-.007.056-.007.068-.01.059-.01.061-.012.064-.015.076-.017.073-.02.066-.02.071-.024.09-.032.083-.034.083-.037.1-.046.105-.056.1-.054.073-.049.078-.051.083-.059.086-.066.083-.068.083-.076.068-.064.068-.068.108-.12.076-.09.086-.115.093-.134.09-.149.073-.137.068-.147.046-.112.046-.125.032-.1.029-.1.039-.157.024-.134.022-.144.007-.078.007-.108,0-.1v-.1l0-.1-.015-.2-.015-.12-.02-.115-.015-.068-.032-.134-.029-.1-.042-.13-.039-.1-.037-.088-.037-.083-.059-.115-.078-.142-.056-.093-.09-.132-.066-.088-.064-.081-.076-.088-.068-.073-.076-.076-.061-.059-.051-.046-.064-.056-.073-.059-.086-.066-.088-.061-.083-.056-.078-.046-.076-.044-.073-.039L225.368,49l-.086-.042-.059-.024-.073-.032-.09-.032-.09-.032-.073-.022-.088-.027-.1-.022-.142-.032-.188-.027-.169-.007-.208-.012-.137-.007-.059,0-.064-.01-.051-.017-.044-.02-.042-.024-.034-.022-.034-.029-.039-.039-.027-.034-.02-.027-.024-.044-.017-.039-.015-.049-.012-.056,0-.044v-.054l0-.051.012-.049.015-.046.022-.044.022-.042.034-.044.042-.042.02-.02.029-.02.032-.024.027-.015.034-.017.032-.015.044-.015.039-.01.051-.01h.122l.1,0,.156.01.252.024.254.039.139.027.276.071.176.056.115.042.044.017.056.022.056.022.056.024.059.027.051.024.054.024.051.027.064.034.049.024.051.029.046.027.049.029.042.027.037.022.039.024.039.027.032.022.046.032.029.02.034.027.034.024.046.034.051.042.042.034.037.029.044.037.034.029.034.032.046.042.039.037.044.044.034.034.046.046.044.046.037.039.046.051.032.039.042.049.029.034.024.032.042.054.049.064.039.054.037.051.039.061.046.071.034.054.017.029.037.064.034.061.032.056.037.073.029.059.037.081.027.064.022.049.022.054.02.051.024.061.017.051.017.049.02.056.015.051.017.054.012.051.015.056.017.064.015.061.01.051.012.059.01.051.01.051,0,.034.007.051.007.056,0,.046.007.054,0,.054,0,.056.01.193v.21l0,.032v.039l0,.042,0,.034,0,.027,0,.042,0,.064-.007.059-.007.061-.01.071-.01.061-.01.064-.01.051-.012.061-.015.066-.012.059-.015.061-.017.068-.022.068-.02.068-.027.086-.024.068-.02.056-.02.049-.022.054-.022.056-.027.064-.024.051-.027.056-.027.059-.029.056-.02.039-.029.056-.029.049-.027.046-.032.054-.034.056-.046.073-.039.059-.034.046-.029.044-.029.039-.032.042-.034.044-.032.042-.034.042-.037.044-.034.039-.029.034-.042.044-.039.042-.037.037-.046.046-.046.046-.042.042-.039.034-.044.039-.037.032-.046.039-.029.024-.039.032-.032.024-.042.032-.039.029-.037.029-.042.029-.042.027-.056.037-.039.027-.054.032-.037.024-.056.032-.039.022-.046.027-.059.029-.059.029-.044.022-.034.017-.044.02-.059.027-.039.015-.061.027-.054.02-.049.02-.061.022-.059.02-.081.024-.073.022-.049.012-.051.012-.066.017-.078.017-.042.007-.046.01-.054.007-.051.01-.034,0-.044,0-.061.007-.068,0-.086,0-.064,0-.166,0-.1,0-.144,0-.108,0-.179,0-.147,0h-.115l-.115,0-.186,0-.134,0-.171,0Z" transform="translate(-166.603 -35.832)" fill="#fff" fill-rule="evenodd"/>
    <path id="Caminho_30" data-name="Caminho 30" d="M207.618,53.778l4.49,0,.2.02.169.027.117.029.122.034.073.027.105.042L213,54l.11.059.108.061.115.078.122.093.127.112.1.1.125.147.078.108.054.081.056.1.042.078.02.042.022.046.024.056.02.046.017.046.02.056.017.059.017.049.01.044.012.051.015.068.015.073.01.073.007.068,0,.061,0,.066v.169l0,.081,0,.061,0,.044-.01.073-.01.051-.01.056-.015.059-.017.071-.017.061-.017.054-.015.044-.02.056-.015.034-.015.037-.029.064L214.04,57l-.027.051-.024.044-.017.029-.022.037-.017.029-.022.034-.024.034-.024.037-.032.044-.086.108-.093.1-.088.088-.081.071-.078.066-.12.086-.032.02-.051.034-.066.039-.056.029-.056.029-.049.024-.049.022-.042.017-.056.024-.066.022-.056.02-.076.022-.076.022-.051.012-.054.01-.078.015-.086.012-.086.007-.064,0-.073,0-.073,0h-4.27l-.086,0-.066,0-.044,0-.056-.007-.051-.007-.054-.01-.061-.01-.064-.015-.034-.01-.054-.015-.061-.017-.068-.024-.059-.022-.076-.029-.073-.032-.051-.024-.051-.027-.078-.044-.059-.034-.054-.034-.044-.032-.046-.032-.051-.039-.037-.029-.059-.049-.068-.061-.078-.078-.051-.056-.051-.059-.071-.088-.054-.073-.054-.081-.046-.081-.042-.073-.027-.051-.032-.068-.022-.049-.022-.054-.015-.039-.02-.059-.017-.049-.02-.064-.015-.061-.012-.046-.012-.064-.01-.046-.007-.044-.007-.056-.007-.061,0-.071,0-.066v-.137l0-.083,0-.042,0-.044.007-.049,0-.049.01-.061.007-.042.012-.056.017-.066.017-.066.017-.056.017-.054.022-.059.022-.054.02-.051.022-.046.029-.061.029-.056.029-.054.027-.044.034-.054.034-.049.044-.064.034-.046.042-.051.034-.042.029-.034.032-.032.056-.059.049-.046.032-.029.046-.042.042-.034.039-.032.056-.042.054-.037.051-.034.044-.027.049-.029.059-.034.056-.029.054-.027.046-.02.034-.015.056-.024.049-.017.076-.027.066-.022.056-.015.049-.012.049-.012.049-.01.051-.01.039,0,.051-.007.064-.007.039,0-.068-.416-.044,0-.034,0-.044.007-.017,0-.017,0-.015,0-.015,0-.02,0-.027,0-.037.007-.029.007-.027,0-.027.007-.049.012-.044.01-.044.012-.044.015-.044.015-.066.022-.056.02-.037.015-.056.024-.044.02-.051.022-.051.027-.064.032-.034.017-.064.037-.059.037-.054.034-.039.024-.046.034-.054.039-.037.027-.059.046-.044.037-.034.032-.068.061-.054.051-.029.032-.037.039-.037.042-.034.039-.029.034-.044.054-.044.059-.056.078-.032.046-.02.034-.029.044-.022.037-.012.022-.015.027-.015.024-.012.022-.01.022-.012.024-.007.017-.017.029-.015.034-.01.022-.017.039-.012.024-.007.022-.01.024-.01.022-.01.027-.01.027-.01.029-.012.032-.01.034-.012.034-.01.034-.01.039-.01.037-.012.044-.01.049-.012.056-.01.056-.01.056-.007.042-.007.071,0,.056-.007.093,0,.049v.12l0,.09,0,.056.01.105.015.11.017.1.01.044.007.034.007.039.007.027.007.027.012.044.015.051.01.029.022.068.022.059.024.064.034.081.027.061.02.039.027.054.032.059.042.068.039.066.039.059.037.054.037.051.046.059.049.059.056.066.068.073.059.059.076.071.059.051.056.046.071.056.086.061.066.044.051.032.09.054.117.064.083.039.086.039.1.037.054.02.054.02.049.015.093.027.068.017.081.017.049.01.059.01.044.007.086.012.093.007.081,0,.073,0h4.326l.044,0,.073,0,.086,0,.086-.01.064-.01.056-.007.051-.01.054-.01.066-.015.056-.015.076-.02.064-.02.076-.024.071-.027.054-.02.086-.037.083-.039.105-.054.083-.046.076-.046.046-.029.066-.044.046-.034.056-.042.046-.039.061-.049.056-.051.054-.051.049-.049.068-.071.051-.059.051-.061.046-.059.039-.054.034-.046.032-.046.039-.061.037-.059.032-.056.039-.076.039-.076.032-.068.027-.064.032-.086.032-.09.027-.09.029-.108.034-.159.02-.132.012-.122,0-.071,0-.1V55.93l0-.105-.007-.083-.012-.093-.017-.105-.022-.115-.01-.046-.01-.032-.01-.039-.012-.042-.015-.054-.017-.049-.017-.049-.015-.042-.022-.051-.022-.054-.02-.046-.02-.044-.022-.044-.02-.039-.029-.056-.022-.037-.027-.044-.024-.042-.024-.042-.027-.039-.029-.042-.039-.054-.039-.054-.037-.044-.02-.024-.037-.042-.034-.039-.034-.037-.039-.042-.066-.066-.051-.049L213.761,54l-.046-.042-.066-.051-.059-.044-.054-.037-.064-.044-.064-.039-.071-.042-.064-.034-.059-.032-.064-.029-.115-.051-.088-.034-.1-.034-.108-.034-.059-.015-.1-.024-.076-.015-.13-.022-.068-.007-.159-.015-.188,0H207.76l-.083,0-.068,0-.061,0-.039,0,.066.416Z" transform="translate(-154.727 -40.093)" fill="#fff" fill-rule="evenodd"/>
    <circle id="Elipse_7" data-name="Elipse 7" cx="10.745" cy="10.745" r="10.745" transform="matrix(0.21, -0.978, 0.978, 0.21, 60.606, 24.124)" fill="#80b900"/>
    <circle id="Elipse_8" data-name="Elipse 8" cx="10.745" cy="10.745" r="10.745" transform="matrix(0.21, -0.978, 0.978, 0.21, 60.606, 24.124)" fill="none" stroke="#80b900" stroke-miterlimit="22.93" stroke-width="0.57"/>
    <path id="Caminho_31" data-name="Caminho 31" d="M268.41,55.872l0,.032v.029l0,.027.007.032,0,.027,0,.012.007.017.007.02.01.02.012.024.01.02.012.017.012.017.01.015.015.015.015.017.015.015.012.01.015.012.02.015.017.012.017.01.017.012.027.012.015.007.02.007.015,0,.017,0,.02,0,.015,0,.012,0,.012,0,.02,0h.015l.017,0h.039l.022,0h.015l.02,0,.024,0,.02,0,.017,0,.012,0,.01,0,.015,0,.02-.007.012-.007.017-.007.015-.007.015-.01.015-.01.012-.007.017-.012.012-.012.015-.012.015-.012.01-.012.015-.017.01-.01.012-.015.012-.02.01-.015.022-.044.017-.029.017-.034.027-.051.076-.144.149-.286.67-1.289.621-1.191,1.218-2.34.313-.6.046-.09.022-.044.017-.029.02-.037.024-.051.027-.051.022-.039.017-.027.017-.029.017-.029.022-.029.024-.034.027-.039.027-.032.034-.042.034-.037.024-.027.029-.029.029-.027.037-.029.027-.022.027-.022.039-.027.034-.022.049-.029.034-.017.039-.02.034-.015.046-.017.046-.015.039-.01.049-.012.056-.007.056-.007.068,0h.037l.037,0,.039,0,.056.007.051.01.037.01.049.012.042.015.042.015.049.022.056.029.061.034.049.029.056.039.051.039.032.027.059.054.027.027.032.032.032.037.039.044.042.054.039.051.039.059.049.081.034.059.034.061.056.09.056.1.059.1.122.21.188.315.022.037.027.046.034.059.029.051.034.059.029.046.037.064.034.059.029.046.034.061.029.049.044.076.034.059.039.066.051.083.156.267.2.333.147.249.144.24.127.218.274.465.21.35.2.335.152.252.044.073.037.051.022.024.029.029.044.034.034.02.037.02.034.012.044.012.037,0,.037,0,.037,0,.037,0,.037-.007.044-.015.034-.015.044-.022.029-.02.032-.027.024-.024.022-.022.024-.032.017-.027.017-.029.01-.02.012-.029.012-.037.012-.051.012-.061.054-.269.12-.614.127-.641.024-.117.01-.059.007-.034,0-.029V52.36l0-.032,0-.027,0-.027,0-.022-.012-.029-.01-.029-.017-.034-.02-.034-.017-.022-.027-.034-.024-.024-.02-.02L278.35,52l-.032-.02-.027-.017-.029-.012-.037-.012-.042-.012-.049,0-.037,0-.039,0-.044.007-.042.012-.037.015-.034.017-.032.02-.034.027-.037.032-.027.032-.032.044-.024.044-.024.059-.017.054-.034.179-.088.44-.707-1.213-.472-.812-.335-.57-.137-.235-.235-.406-.125-.218-.027-.049-.029-.054-.039-.068-.044-.071-.054-.078-.051-.073-.064-.081-.059-.068-.056-.064-.046-.046-.051-.049-.064-.059-.09-.076-.081-.064-.086-.059-.11-.068-.12-.066-.09-.042-.088-.037-.132-.049-.132-.039-.115-.024-.083-.015-.1-.015-.125-.007-.066,0h-.066l-.078,0-.086.007-.093.012-.1.017-.029.007-.051.012-.046.012-.1.032-.108.039-.1.044-.083.042-.115.066-.12.083-.127.1-.132.122-.108.117-.083.1-.066.088-.088.132-.054.09-.068.127-.081.161-.22.433-.359.707-.289.57-.225.443-.313.619-.408.809-.279.548-.4.785-.56,1.11-.051.1-.022.046-.01.029-.015.064,0,.027Z" transform="translate(-202.563 -36.149)" fill="#fff" fill-rule="evenodd"/>
    <path id="Caminho_32" data-name="Caminho 32" d="M299.089,69.9l.68,1.127-.179-.042-.139-.032-.245-.054-.443-.1-.1-.022-.064-.015-.037-.01-.042-.015-.034-.017-.042-.027-.027-.02-.027-.024-.029-.032-.027-.034-.022-.034-.015-.029-.017-.034-.012-.032-.012-.044-.007-.056,0-.051,0-.042,0-.042,0-.032.01-.037.01-.032.015-.034.02-.037.017-.027.022-.034.024-.024.02-.022.024-.02.032-.024.032-.022.044-.022.044-.015.046-.012.046,0h.039l.046,0,.076.015.064.015Z" transform="translate(-225.107 -52.535)" fill="#fff" fill-rule="evenodd"/>
    <path id="Caminho_33" data-name="Caminho 33" d="M317.739,76.531l.68,1.127-.306-.068-.227-.051-.362-.083-.108-.024-.09-.022-.054-.012-.051-.012-.029-.012-.044-.017-.044-.029-.042-.032-.042-.042-.029-.039-.032-.049-.015-.032-.017-.042-.015-.049-.01-.054,0-.049v-.046l0-.039.007-.044.012-.044.015-.034.012-.032.02-.034.02-.029.017-.022.022-.024.024-.024.029-.024.024-.017.032-.022.037-.017.039-.015.024-.007.042-.007.044,0h.027l.032,0,.037,0,.046.012.064.015.039.007.054.012.042.01.037.007Z" transform="translate(-239.196 -57.544)" fill="#fff" fill-rule="evenodd"/>
    <path id="Caminho_34" data-name="Caminho 34" d="M302.43,57.558l.061-.066.049-.049.059-.056.059-.051.081-.066.056-.042.049-.034.054-.037.044-.027.046-.027.037-.022.051-.027.044-.022.054-.024.042-.02.042-.017.044-.017.051-.017.056-.02.054-.015.044-.012.051-.015.056-.012.071-.012.068-.012.068-.007.068-.007.056,0,.056,0h.064l.044,0,.064,0,.044,0,.061.007.061.007.044.007.054.01.056.01.078.02.066.017.066.022.061.022.056.02.054.022.046.022.071.034.064.032.061.037.046.027.044.027.034.024.049.034.054.039.039.032.049.042.064.056.037.034.056.056.037.039.051.059.056.066.034.046.034.046.037.049.032.051.034.051.034.059.032.059.024.042.027.054.029.051.044.071.042.068.071.117.071.117.2.32.242.4.276.455.3.5.257.421.335.558.071-.362.051-.257.017-.059.015-.034.02-.042.017-.032.022-.029.02-.024.02-.02.027-.024.027-.022.029-.02.024-.015.034-.015.027-.01.037-.012.032,0,.024,0h.076l.024,0,.032,0,.032.01.042.015.042.02.034.022.034.027.032.029.034.042.024.037.022.039.015.032.017.044.01.039.007.042,0,.054,0,.071-.012.083-.017.083-.044.225-.056.276-.11.56-.09.462-.024.112-.01.044-.017.054-.022.044-.02.034,0,.007-.032.042-.039.042-.051.042-.081.042-.061.02-.071.012h-.051l-.076-.015-.044-.012-.059-.029L307.8,62.8l-.059-.068-.042-.066-.073-.122-.093-.154-.088-.147-.311-.511-.477-.787-.428-.7-.668-1.1-.262-.433-.054-.09-.046-.086-.042-.073-.034-.056-.042-.061-.056-.076-.066-.076-.042-.044-.056-.051-.059-.049-.078-.056-.1-.059-.093-.042-.071-.027-.105-.027-.115-.02-.112,0-.108,0-.083.012-.088.02-.081.027-.09.034-.078.034-.086.046-.088.059-.071.051-.071.056-.076.071-.061.064-.061.071-.081.1-.117-.183Z" transform="translate(-228.264 -42.714)" fill="#fff" fill-rule="evenodd"/>
    <circle id="Elipse_9" data-name="Elipse 9" cx="10.745" cy="10.745" r="10.745" transform="translate(78.557 23.887) rotate(-76.72)" fill="#f6921e"/>
    <circle id="Elipse_10" data-name="Elipse 10" cx="10.745" cy="10.745" r="10.745" transform="translate(78.557 23.887) rotate(-76.72)" fill="none" stroke="#f6921e" stroke-miterlimit="22.93" stroke-width="0.57"/>
    <path id="Caminho_35" data-name="Caminho 35" d="M361,53.268c.1.044.416.081.572.137.611.218.374.325.729.152.076-.037.159-.071.24-.1a3.234,3.234,0,0,1,.528-.157,3.609,3.609,0,0,1,2.316.372,6.177,6.177,0,0,1,.883.523c.147.1.274.2.4.3.073.061.12.1.188.154.2.154.372.328.555.492a18.907,18.907,0,0,1,1.347,1.445c.232.264.758.78,1.032,1.059.088.088.076.127.235.13.281,0,.58-.059.6-.445.027-.43.02-.91.027-1.347.01-.462.02-.924.027-1.387,0-.247.02-.438-.115-.584a.452.452,0,0,0-.783.323c-.037.5-.017,1.443-.042,2.032a1.817,1.817,0,0,1-.205-.242c-.183-.237-.423-.482-.594-.694l-.21-.232a17.831,17.831,0,0,0-1.306-1.247c-1.509-1.206-3.3-2.14-5.331-1.294a6.549,6.549,0,0,0-.844.445l-.242.144s-.01.015-.012.01-.007.007-.012.01" transform="translate(-272.505 -39.321)" fill="#fff" fill-rule="evenodd"/>
    <path id="Caminho_36" data-name="Caminho 36" d="M352.64,59.945c-.1-.012-.2-.169-.269-.232-.369-.318-.853-.88-1.245-1.247a4.4,4.4,0,0,0-1.846-1.13,3.9,3.9,0,0,0-3.245.33c-.364.2-1.254.822-1.279,1.215a.459.459,0,0,0,.132.374c.254.257.474.1.66-.068a5.9,5.9,0,0,1,.536-.45,3.243,3.243,0,0,1,3.756-.191,6.152,6.152,0,0,1,1.083.9c.164.164.323.369.489.516s.325.333.487.5l.988,1a.54.54,0,0,0,.4-.049.488.488,0,0,0,.223-.281c.039-.13.027-1.692.027-1.956a.8.8,0,0,0-.061-.438.433.433,0,0,0-.807.24,9.112,9.112,0,0,1-.032.961" transform="translate(-260.24 -42.944)" fill="#fff" fill-rule="evenodd"/>
    <path id="Caminho_37" data-name="Caminho 37" d="M351.264,63.525a2.27,2.27,0,0,1,1.717.712.277.277,0,0,0,.355-.374,1.778,1.778,0,0,0-.435-.389,2.658,2.658,0,0,0-3.118.032,3.806,3.806,0,0,0-.692.555c-.142.232.029.714.5.274a2.968,2.968,0,0,1,1.677-.809" transform="translate(-263.478 -47.37)" fill="#fff" fill-rule="evenodd"/>
    <path id="Caminho_38" data-name="Caminho 38" d="M388.023,71.721a1.62,1.62,0,0,0-.23-.242l-.447-.457c-.318-.323-.176-.208-1.142-.215-.325,0-.567-.049-.751.142a.439.439,0,0,0,.012.626c.174.176.462.132.76.134.6,0,1.2.01,1.8.01" transform="translate(-290.891 -53.27)" fill="#fff" fill-rule="evenodd"/>
    <path id="Caminho_39" data-name="Caminho 39" d="M370.266,71.9c-.565-.589-.381-.5-.966-.484-.242,0-.457-.007-.594.132s-.291.753.474.743l1.448-.015-.359-.379Z" transform="translate(-278.245 -53.728)" fill="#fff" fill-rule="evenodd"/>
    <circle id="Elipse_11" data-name="Elipse 11" cx="10.745" cy="10.745" r="10.745" transform="translate(94.343 15.889) rotate(-45)" fill="#7b2e82"/>
    <circle id="Elipse_12" data-name="Elipse 12" cx="10.745" cy="10.745" r="10.745" transform="translate(94.343 15.889) rotate(-45)" fill="none" stroke="#7b2e82" stroke-miterlimit="22.93" stroke-width="0.57"/>
    <path id="Caminho_40" data-name="Caminho 40" d="M449.2,67.347a9.5,9.5,0,0,0,1.927-3.832,5.56,5.56,0,0,0,.169-1.9.406.406,0,0,0-.511-.149c-.311.144-.235.8-.284,1.149a8.247,8.247,0,0,1-1.748,4.042,5.611,5.611,0,0,0-.839,1.308.432.432,0,0,0,.411.315,11.809,11.809,0,0,0,1.247-.193c.337-.051.988-.115.746-.638-.169-.364-.743-.086-1.122-.1" transform="translate(-338.174 -46.196)" fill="#fff" fill-rule="evenodd"/>
    <path id="Caminho_41" data-name="Caminho 41" d="M426.988,45.273a9.518,9.518,0,0,0,.484,3.692,9.168,9.168,0,0,0,1.049,2.066.4.4,0,0,0,.658-.115c.1-.264-.161-.528-.274-.714-1.347-2.264-1.076-3.739-1.181-6.152-.5-.267-.477-.149-.9.271-.247.245-.489.489-.719.719-.1.1-.286.23-.3.421-.02.245.262.692.783.164a1.472,1.472,0,0,1,.4-.352" transform="translate(-321.471 -32.959)" fill="#fff" fill-rule="evenodd"/>
    <path id="Caminho_42" data-name="Caminho 42" d="M454.233,54.583c.531.042.531-.227.6-.68.066-.408.306-1.406.115-1.636a.385.385,0,0,0-.479-.066c-.291.176-.152.682-.333.978a9.483,9.483,0,0,0-1.029-1.364,8.715,8.715,0,0,0-2.749-2.044,5.265,5.265,0,0,0-.846-.352.4.4,0,0,0-.374.648,7.76,7.76,0,0,0,.824.372,8.3,8.3,0,0,1,2.145,1.453,13.647,13.647,0,0,1,1.6,1.988,8.177,8.177,0,0,1,.518.7" transform="translate(-339.022 -37.117)" fill="#fff" fill-rule="evenodd"/>
    <path id="Caminho_43" data-name="Caminho 43" d="M440.089,39.721a9.923,9.923,0,0,0-2.191.846,7.318,7.318,0,0,0-.927.58c-.144.1-.306.218-.43.323a7.348,7.348,0,0,0-1.482,1.57c-.091.318.293.812.763.245.112-.134.232-.274.347-.408a8.367,8.367,0,0,1,1.67-1.377,15.058,15.058,0,0,1,3.262-1.323c.215-.073.416-.061.43-.333a.44.44,0,0,0-.313-.452,12.118,12.118,0,0,0-1.548-.743c-.423-.024-.614.526-.1.78a1.816,1.816,0,0,1,.516.3" transform="translate(-328.451 -28.985)" fill="#fff" fill-rule="evenodd"/>
    <path id="Caminho_44" data-name="Caminho 44" d="M427.161,72.952a9.038,9.038,0,0,0,3.69-.22.4.4,0,0,0,.1-.765,9.833,9.833,0,0,1-4.822-.037,12.494,12.494,0,0,0-2.088-.6.423.423,0,0,0-.191.479l.687,1.369c.337.668.709.355.785.186.125-.274-.218-.763-.318-1,.33.093.67.24,1.027.342a9.539,9.539,0,0,0,1.125.242" transform="translate(-319.986 -53.671)" fill="#fff" fill-rule="evenodd"/>
    <path id="Caminho_45" data-name="Caminho 45" d="M426.14,68.673a8.975,8.975,0,0,0,1.017.306,1.557,1.557,0,0,0,.472-.213.389.389,0,0,0-.161-.746,6.247,6.247,0,0,0-1.325.65" transform="translate(-321.723 -51.175)" fill="#fff" fill-rule="evenodd"/>
    <path id="Caminho_46" data-name="Caminho 46" d="M434.492,45.492c-.007.215,0,.433.007.65,0,.262-.039.4.1.543s.526.614.846.271-.13-.658-.279-.807a7.391,7.391,0,0,0-.675-.66" transform="translate(-328.031 -34.155)" fill="#fff" fill-rule="evenodd"/>
    <path id="Caminho_47" data-name="Caminho 47" d="M456.652,45.47c-.127.034-.924.293-1,.342-.039.024-.5.641-.2.934a.418.418,0,0,0,.5.046,1.133,1.133,0,0,0,.259-.423,9.59,9.59,0,0,0,.445-.9" transform="translate(-343.789 -34.14)" fill="#fff" fill-rule="evenodd"/>
    <path id="Caminho_48" data-name="Caminho 48" d="M464.083,67.361a6.256,6.256,0,0,0-.536-.743c-.142-.188-.183-.152-.455-.2a.582.582,0,0,0-.5.081.394.394,0,0,0-.078.465c.078.144.218.191.435.22.369.051.763.137,1.137.171" transform="translate(-349.168 -49.954)" fill="#fff" fill-rule="evenodd"/>
    <path id="Caminho_49" data-name="Caminho 49" d="M447.229,80.954c.489-.712.509-.582.433-1.061-.1-.614-.516-.543-.68-.384-.247.237.02.993.09,1.646l.159-.2Z" transform="translate(-337.391 -59.771)" fill="#fff" fill-rule="evenodd"/>
  </g>
</svg>
